<svg width="738" height="425" viewBox="0 0 738 425" fill="none" xmlns="http://www.w3.org/2000/svg">
<g clip-path="url(#clip0_2871_1511)">
<mask id="mask0_2871_1511" style="mask-type:alpha" maskUnits="userSpaceOnUse" x="175" y="35" width="392" height="353">
<path d="M566.871 211.254C566.871 114.047 479.209 35.2441 371.073 35.2441C262.936 35.2441 175.274 114.047 175.274 211.254C175.274 308.462 262.936 387.265 371.073 387.265C479.209 387.265 566.871 308.462 566.871 211.254Z" fill="white"/>
</mask>
<g mask="url(#mask0_2871_1511)">
<path fill-rule="evenodd" clip-rule="evenodd" d="M232.931 128.537V170H279.056H325.181V128.537V87.0732H279.056H232.931V128.537ZM351.538 92.9966C351.538 96.9445 349.34 98.9199 344.949 98.9199C340.557 98.9199 338.359 100.895 338.359 104.843C338.359 108.791 340.557 110.767 344.949 110.767C349.34 110.767 351.538 108.791 351.538 104.843C351.538 100.895 353.735 98.9199 358.127 98.9199C362.519 98.9199 364.716 96.9445 364.716 92.9966C364.716 89.0487 362.519 87.0732 358.127 87.0732C353.735 87.0732 351.538 89.0487 351.538 92.9966ZM377.895 98.9199C377.895 108.791 376.798 110.767 371.306 110.767C366.914 110.767 364.716 112.742 364.716 116.69C364.716 120.638 362.519 122.613 358.127 122.613C353.735 122.613 351.538 124.589 351.538 128.537C351.538 132.485 349.34 134.46 344.949 134.46C340.557 134.46 338.359 136.435 338.359 140.383C338.359 144.331 340.557 146.307 344.949 146.307C349.34 146.307 351.538 148.282 351.538 152.23C351.538 156.178 349.34 158.153 344.949 158.153C340.557 158.153 338.359 160.129 338.359 164.077C338.359 168.025 340.557 170 344.949 170C349.34 170 351.538 168.025 351.538 164.077C351.538 160.129 353.735 158.153 358.127 158.153C363.619 158.153 364.716 160.129 364.716 170C364.716 179.871 363.619 181.847 358.127 181.847C353.735 181.847 351.538 183.822 351.538 187.77C351.538 191.718 349.34 193.693 344.949 193.693C340.557 193.693 338.359 195.669 338.359 199.617C338.359 204.883 336.162 205.54 318.591 205.54C301.021 205.54 298.824 206.198 298.824 211.463C298.824 216.729 301.021 217.387 318.591 217.387C336.162 217.387 338.359 218.044 338.359 223.31C338.359 228.247 336.162 229.234 325.181 229.234C314.2 229.234 312.002 230.22 312.002 235.157C312.002 240.094 314.2 241.08 325.181 241.08C336.162 241.08 338.359 242.066 338.359 247.004C338.359 251.941 340.557 252.927 351.538 252.927C362.519 252.927 364.716 253.913 364.716 258.85C364.716 262.798 362.519 264.774 358.127 264.774C353.735 264.774 351.538 266.749 351.538 270.697C351.538 274.645 349.34 276.62 344.949 276.62C340.557 276.62 338.359 278.596 338.359 282.544C338.359 287.481 340.557 288.467 351.538 288.467H364.716V276.62C364.716 266.749 365.813 264.774 371.306 264.774C376.798 264.774 377.895 262.798 377.895 252.927C377.895 243.056 378.992 241.08 384.484 241.08C388.876 241.08 391.074 239.105 391.074 235.157C391.074 231.209 393.271 229.234 397.663 229.234C402.055 229.234 404.252 231.209 404.252 235.157C404.252 239.105 406.45 241.08 410.841 241.08C415.233 241.08 417.431 243.056 417.431 247.004C417.431 250.951 419.628 252.927 424.02 252.927C428.412 252.927 430.609 250.951 430.609 247.004C430.609 243.056 432.807 241.08 437.199 241.08C441.59 241.08 443.788 239.105 443.788 235.157C443.788 231.209 445.985 229.234 450.377 229.234C454.769 229.234 456.966 227.258 456.966 223.31C456.966 219.362 459.164 217.387 463.556 217.387C469.048 217.387 470.145 215.411 470.145 205.54C470.145 195.669 469.048 193.693 463.556 193.693C459.164 193.693 456.966 191.718 456.966 187.77C456.966 183.822 454.769 181.847 450.377 181.847C445.985 181.847 443.788 183.822 443.788 187.77C443.788 191.718 441.59 193.693 437.199 193.693C432.807 193.693 430.609 195.669 430.609 199.617C430.609 203.565 428.412 205.54 424.02 205.54C419.628 205.54 417.431 203.565 417.431 199.617C417.431 195.669 415.233 193.693 410.841 193.693C406.45 193.693 404.252 191.718 404.252 187.77C404.252 183.822 402.055 181.847 397.663 181.847C393.271 181.847 391.074 183.822 391.074 187.77C391.074 191.718 388.876 193.693 384.484 193.693C380.092 193.693 377.895 195.669 377.895 199.617C377.895 204.554 375.697 205.54 364.716 205.54C353.735 205.54 351.538 204.554 351.538 199.617C351.538 195.669 353.735 193.693 358.127 193.693C362.519 193.693 364.716 191.718 364.716 187.77C364.716 183.822 366.914 181.847 371.306 181.847C376.798 181.847 377.895 179.871 377.895 170C377.895 160.129 378.992 158.153 384.484 158.153C388.876 158.153 391.074 160.129 391.074 164.077C391.074 168.025 393.271 170 397.663 170C402.055 170 404.252 168.025 404.252 164.077C404.252 160.129 402.055 158.153 397.663 158.153C393.271 158.153 391.074 156.178 391.074 152.23C391.074 148.282 393.271 146.307 397.663 146.307C402.055 146.307 404.252 144.331 404.252 140.383C404.252 136.435 402.055 134.46 397.663 134.46C393.271 134.46 391.074 132.485 391.074 128.537C391.074 124.589 388.876 122.613 384.484 122.613C380.092 122.613 377.895 120.638 377.895 116.69C377.895 112.742 380.092 110.767 384.484 110.767C389.976 110.767 391.074 108.791 391.074 98.9199C391.074 89.0487 389.976 87.0732 384.484 87.0732C378.992 87.0732 377.895 89.0487 377.895 98.9199ZM417.431 128.537V170H463.556H509.681V128.537V87.0732H463.556H417.431V128.537ZM312.002 128.537V158.153H279.056H246.109V128.537V98.9199H279.056H312.002V128.537ZM496.502 128.537V158.153H463.556H430.609V128.537V98.9199H463.556H496.502V128.537ZM259.288 128.537V146.307H279.056H298.824V128.537V110.767H279.056H259.288V128.537ZM443.788 128.537V146.307H463.556H483.324V128.537V110.767H463.556H443.788V128.537ZM377.895 134.46V146.307H364.716C353.735 146.307 351.538 145.32 351.538 140.383C351.538 136.435 353.735 134.46 358.127 134.46C362.519 134.46 364.716 132.485 364.716 128.537C364.716 124.589 366.914 122.613 371.306 122.613C376.798 122.613 377.895 124.589 377.895 134.46ZM232.931 193.693V205.54H246.109C257.09 205.54 259.288 206.526 259.288 211.463C259.288 215.411 261.485 217.387 265.877 217.387C270.269 217.387 272.466 219.362 272.466 223.31C272.466 228.247 270.269 229.234 259.288 229.234C248.307 229.234 246.109 228.247 246.109 223.31C246.109 219.362 243.912 217.387 239.52 217.387C234.028 217.387 232.931 219.362 232.931 229.234V241.08H259.288H285.645V229.234C285.645 219.362 284.548 217.387 279.056 217.387C273.198 217.387 272.466 215.411 272.466 199.617C272.466 183.822 271.735 181.847 265.877 181.847C261.485 181.847 259.288 183.822 259.288 187.77C259.288 191.718 257.09 193.693 252.699 193.693C248.307 193.693 246.109 191.718 246.109 187.77C246.109 183.822 243.912 181.847 239.52 181.847C234.028 181.847 232.931 183.822 232.931 193.693ZM285.645 187.77C285.645 191.718 287.842 193.693 292.234 193.693C296.626 193.693 298.824 191.718 298.824 187.77C298.824 183.822 296.626 181.847 292.234 181.847C287.842 181.847 285.645 183.822 285.645 187.77ZM312.002 187.77C312.002 191.718 314.2 193.693 318.591 193.693C322.983 193.693 325.181 191.718 325.181 187.77C325.181 183.822 322.983 181.847 318.591 181.847C314.2 181.847 312.002 183.822 312.002 187.77ZM483.324 199.617V217.387H496.502H509.681V205.54C509.681 195.669 508.584 193.693 503.091 193.693C498.7 193.693 496.502 191.718 496.502 187.77C496.502 183.822 494.305 181.847 489.913 181.847C484.055 181.847 483.324 183.822 483.324 199.617ZM404.252 205.54C404.252 215.411 403.155 217.387 397.663 217.387C392.171 217.387 391.074 215.411 391.074 205.54C391.074 195.669 392.171 193.693 397.663 193.693C403.155 193.693 404.252 195.669 404.252 205.54ZM456.966 205.54C456.966 215.411 455.869 217.387 450.377 217.387C444.885 217.387 443.788 215.411 443.788 205.54C443.788 195.669 444.885 193.693 450.377 193.693C455.869 193.693 456.966 195.669 456.966 205.54ZM351.538 211.463C351.538 216.401 353.735 217.387 364.716 217.387H377.895V229.234C377.895 239.105 376.798 241.08 371.306 241.08C366.914 241.08 364.716 239.105 364.716 235.157C364.716 231.209 362.519 229.234 358.127 229.234C353.735 229.234 351.538 231.209 351.538 235.157C351.538 239.105 349.34 241.08 344.949 241.08C340.557 241.08 338.359 239.105 338.359 235.157C338.359 231.209 340.557 229.234 344.949 229.234C349.34 229.234 351.538 227.258 351.538 223.31C351.538 219.362 349.34 217.387 344.949 217.387C340.557 217.387 338.359 215.411 338.359 211.463C338.359 207.516 340.557 205.54 344.949 205.54C349.34 205.54 351.538 207.516 351.538 211.463ZM430.609 223.31C430.609 227.258 428.412 229.234 424.02 229.234C419.628 229.234 417.431 227.258 417.431 223.31C417.431 219.362 419.628 217.387 424.02 217.387C428.412 217.387 430.609 219.362 430.609 223.31ZM470.145 247.004C470.145 251.941 467.947 252.927 456.966 252.927C445.985 252.927 443.788 253.913 443.788 258.85C443.788 263.787 445.985 264.774 456.966 264.774C467.947 264.774 470.145 263.787 470.145 258.85C470.145 254.902 472.342 252.927 476.734 252.927C482.592 252.927 483.324 254.902 483.324 270.697C483.324 286.492 482.592 288.467 476.734 288.467C472.342 288.467 470.145 290.442 470.145 294.39C470.145 299.327 472.342 300.314 483.324 300.314C494.305 300.314 496.502 301.3 496.502 306.237C496.502 310.185 494.305 312.16 489.913 312.16C485.521 312.16 483.324 314.136 483.324 318.084C483.324 322.032 481.126 324.007 476.734 324.007C472.342 324.007 470.145 322.032 470.145 318.084C470.145 313.147 467.947 312.16 456.966 312.16H443.788V300.314C443.788 290.442 444.885 288.467 450.377 288.467C454.769 288.467 456.966 286.492 456.966 282.544C456.966 278.596 454.769 276.62 450.377 276.62C445.985 276.62 443.788 278.596 443.788 282.544C443.788 286.492 441.59 288.467 437.199 288.467C431.706 288.467 430.609 286.492 430.609 276.62C430.609 266.749 429.512 264.774 424.02 264.774C418.528 264.774 417.431 266.749 417.431 276.62C417.431 286.492 416.334 288.467 410.841 288.467C406.45 288.467 404.252 286.492 404.252 282.544C404.252 278.596 402.055 276.62 397.663 276.62C393.271 276.62 391.074 278.596 391.074 282.544C391.074 286.492 388.876 288.467 384.484 288.467C380.092 288.467 377.895 290.442 377.895 294.39C377.895 299.656 375.697 300.314 358.127 300.314C340.557 300.314 338.359 300.971 338.359 306.237C338.359 311.174 340.557 312.16 351.538 312.16C362.519 312.16 364.716 313.147 364.716 318.084C364.716 322.032 366.914 324.007 371.306 324.007C375.697 324.007 377.895 325.982 377.895 329.93C377.895 333.878 380.092 335.854 384.484 335.854C388.876 335.854 391.074 333.878 391.074 329.93C391.074 325.982 393.271 324.007 397.663 324.007C402.055 324.007 404.252 325.982 404.252 329.93C404.252 335.196 406.45 335.854 424.02 335.854C441.59 335.854 443.788 335.196 443.788 329.93C443.788 324.993 445.985 324.007 456.966 324.007C467.947 324.007 470.145 324.993 470.145 329.93C470.145 335.196 472.342 335.854 489.913 335.854C507.483 335.854 509.681 335.196 509.681 329.93C509.681 325.982 507.483 324.007 503.091 324.007C498.7 324.007 496.502 322.032 496.502 318.084C496.502 314.136 498.7 312.16 503.091 312.16C507.483 312.16 509.681 310.185 509.681 306.237C509.681 302.289 507.483 300.314 503.091 300.314C498.7 300.314 496.502 298.338 496.502 294.39C496.502 290.442 498.7 288.467 503.091 288.467C507.483 288.467 509.681 286.492 509.681 282.544C509.681 278.596 507.483 276.62 503.091 276.62C498.7 276.62 496.502 274.645 496.502 270.697C496.502 266.749 498.7 264.774 503.091 264.774C508.584 264.774 509.681 262.798 509.681 252.927V241.08H489.913C472.342 241.08 470.145 241.738 470.145 247.004ZM232.931 294.39V335.854H279.056H325.181V294.39V252.927H279.056H232.931V294.39ZM391.074 258.85C391.074 262.798 393.271 264.774 397.663 264.774C402.055 264.774 404.252 262.798 404.252 258.85C404.252 254.902 402.055 252.927 397.663 252.927C393.271 252.927 391.074 254.902 391.074 258.85ZM312.002 294.39V324.007H279.056H246.109V294.39V264.774H279.056H312.002V294.39ZM259.288 294.39V312.16H279.056H298.824V294.39V276.62H279.056H259.288V294.39ZM404.252 300.314C404.252 310.185 403.155 312.16 397.663 312.16C392.171 312.16 391.074 310.185 391.074 300.314C391.074 290.442 392.171 288.467 397.663 288.467C403.155 288.467 404.252 290.442 404.252 300.314ZM430.609 294.39C430.609 298.338 428.412 300.314 424.02 300.314C419.628 300.314 417.431 298.338 417.431 294.39C417.431 290.442 419.628 288.467 424.02 288.467C428.412 288.467 430.609 290.442 430.609 294.39ZM430.609 318.084C430.609 322.032 428.412 324.007 424.02 324.007C419.628 324.007 417.431 322.032 417.431 318.084C417.431 314.136 419.628 312.16 424.02 312.16C428.412 312.16 430.609 314.136 430.609 318.084ZM338.359 329.93C338.359 333.878 340.557 335.854 344.949 335.854C349.34 335.854 351.538 333.878 351.538 329.93C351.538 325.982 349.34 324.007 344.949 324.007C340.557 324.007 338.359 325.982 338.359 329.93Z" fill="#FF8566"/>
</g>
</g>
<rect x="1" y="1" width="736" height="423" rx="7" stroke="white" stroke-width="2"/>
<rect x="39" y="36" width="663" height="353" rx="8" fill="#FF8566"/>
<g clip-path="url(#clip1_2871_1511)">
<mask id="mask1_2871_1511" style="mask-type:alpha" maskUnits="userSpaceOnUse" x="54" y="57" width="310" height="310">
<path d="M363.34 211.906C363.34 126.516 294.117 57.293 208.727 57.293C123.337 57.293 54.1143 126.516 54.1143 211.906C54.1143 297.296 123.337 366.519 208.727 366.519C294.117 366.519 363.34 297.296 363.34 211.906Z" fill="white"/>
</mask>
<g mask="url(#mask1_2871_1511)">
<path fill-rule="evenodd" clip-rule="evenodd" d="M99.6426 139.244V175.667H136.065H172.488V139.244V102.821H136.065H99.6426V139.244ZM193.301 108.025C193.301 111.493 191.566 113.228 188.098 113.228C184.63 113.228 182.895 114.963 182.895 118.431C182.895 121.899 184.63 123.634 188.098 123.634C191.566 123.634 193.301 121.899 193.301 118.431C193.301 114.963 195.036 113.228 198.504 113.228C201.972 113.228 203.708 111.493 203.708 108.025C203.708 104.557 201.972 102.821 198.504 102.821C195.036 102.821 193.301 104.557 193.301 108.025ZM214.114 113.228C214.114 121.899 213.248 123.634 208.911 123.634C205.443 123.634 203.708 125.37 203.708 128.838C203.708 132.306 201.972 134.041 198.504 134.041C195.036 134.041 193.301 135.776 193.301 139.244C193.301 142.712 191.566 144.447 188.098 144.447C184.63 144.447 182.895 146.183 182.895 149.651C182.895 153.119 184.63 154.854 188.098 154.854C191.566 154.854 193.301 156.589 193.301 160.057C193.301 163.525 191.566 165.26 188.098 165.26C184.63 165.26 182.895 166.996 182.895 170.464C182.895 173.932 184.63 175.667 188.098 175.667C191.566 175.667 193.301 173.932 193.301 170.464C193.301 166.996 195.036 165.26 198.504 165.26C202.841 165.26 203.708 166.996 203.708 175.667C203.708 184.338 202.841 186.073 198.504 186.073C195.036 186.073 193.301 187.809 193.301 191.277C193.301 194.745 191.566 196.48 188.098 196.48C184.63 196.48 182.895 198.215 182.895 201.683C182.895 206.309 181.159 206.886 167.285 206.886C153.41 206.886 151.675 207.464 151.675 212.09C151.675 216.715 153.41 217.293 167.285 217.293C181.159 217.293 182.895 217.87 182.895 222.496C182.895 226.833 181.159 227.699 172.488 227.699C163.817 227.699 162.082 228.566 162.082 232.903C162.082 237.24 163.817 238.106 172.488 238.106C181.159 238.106 182.895 238.972 182.895 243.309C182.895 247.646 184.63 248.512 193.301 248.512C201.972 248.512 203.708 249.379 203.708 253.716C203.708 257.184 201.972 258.919 198.504 258.919C195.036 258.919 193.301 260.654 193.301 264.122C193.301 267.59 191.566 269.325 188.098 269.325C184.63 269.325 182.895 271.061 182.895 274.529C182.895 278.866 184.63 279.732 193.301 279.732H203.708V269.325C203.708 260.654 204.574 258.919 208.911 258.919C213.248 258.919 214.114 257.184 214.114 248.512C214.114 239.841 214.98 238.106 219.317 238.106C222.785 238.106 224.521 236.371 224.521 232.903C224.521 229.435 226.256 227.699 229.724 227.699C233.192 227.699 234.927 229.435 234.927 232.903C234.927 236.371 236.662 238.106 240.13 238.106C243.598 238.106 245.334 239.841 245.334 243.309C245.334 246.777 247.069 248.512 250.537 248.512C254.005 248.512 255.74 246.777 255.74 243.309C255.74 239.841 257.475 238.106 260.943 238.106C264.411 238.106 266.147 236.371 266.147 232.903C266.147 229.435 267.882 227.699 271.35 227.699C274.818 227.699 276.553 225.964 276.553 222.496C276.553 219.028 278.288 217.293 281.756 217.293C286.093 217.293 286.96 215.558 286.96 206.886C286.96 198.215 286.093 196.48 281.756 196.48C278.288 196.48 276.553 194.745 276.553 191.277C276.553 187.809 274.818 186.073 271.35 186.073C267.882 186.073 266.147 187.809 266.147 191.277C266.147 194.745 264.411 196.48 260.943 196.48C257.475 196.48 255.74 198.215 255.74 201.683C255.74 205.151 254.005 206.886 250.537 206.886C247.069 206.886 245.334 205.151 245.334 201.683C245.334 198.215 243.598 196.48 240.13 196.48C236.662 196.48 234.927 194.745 234.927 191.277C234.927 187.809 233.192 186.073 229.724 186.073C226.256 186.073 224.521 187.809 224.521 191.277C224.521 194.745 222.785 196.48 219.317 196.48C215.849 196.48 214.114 198.215 214.114 201.683C214.114 206.02 212.379 206.886 203.708 206.886C195.036 206.886 193.301 206.02 193.301 201.683C193.301 198.215 195.036 196.48 198.504 196.48C201.972 196.48 203.708 194.745 203.708 191.277C203.708 187.809 205.443 186.073 208.911 186.073C213.248 186.073 214.114 184.338 214.114 175.667C214.114 166.996 214.98 165.26 219.317 165.26C222.785 165.26 224.521 166.996 224.521 170.464C224.521 173.932 226.256 175.667 229.724 175.667C233.192 175.667 234.927 173.932 234.927 170.464C234.927 166.996 233.192 165.26 229.724 165.26C226.256 165.26 224.521 163.525 224.521 160.057C224.521 156.589 226.256 154.854 229.724 154.854C233.192 154.854 234.927 153.119 234.927 149.651C234.927 146.183 233.192 144.447 229.724 144.447C226.256 144.447 224.521 142.712 224.521 139.244C224.521 135.776 222.785 134.041 219.317 134.041C215.849 134.041 214.114 132.306 214.114 128.838C214.114 125.37 215.849 123.634 219.317 123.634C223.654 123.634 224.521 121.899 224.521 113.228C224.521 104.557 223.654 102.821 219.317 102.821C214.98 102.821 214.114 104.557 214.114 113.228ZM245.334 139.244V175.667H281.756H318.179V139.244V102.821H281.756H245.334V139.244ZM162.082 139.244V165.26H136.065H110.049V139.244V113.228H136.065H162.082V139.244ZM307.773 139.244V165.26H281.756H255.74V139.244V113.228H281.756H307.773V139.244ZM120.456 139.244V154.854H136.065H151.675V139.244V123.634H136.065H120.456V139.244ZM266.147 139.244V154.854H281.756H297.366V139.244V123.634H281.756H266.147V139.244ZM214.114 144.447V154.854H203.708C195.036 154.854 193.301 153.987 193.301 149.651C193.301 146.183 195.036 144.447 198.504 144.447C201.972 144.447 203.708 142.712 203.708 139.244C203.708 135.776 205.443 134.041 208.911 134.041C213.248 134.041 214.114 135.776 214.114 144.447ZM99.6426 196.48V206.886H110.049C118.72 206.886 120.456 207.753 120.456 212.09C120.456 215.558 122.191 217.293 125.659 217.293C129.127 217.293 130.862 219.028 130.862 222.496C130.862 226.833 129.127 227.699 120.456 227.699C111.784 227.699 110.049 226.833 110.049 222.496C110.049 219.028 108.314 217.293 104.846 217.293C100.509 217.293 99.6426 219.028 99.6426 227.699V238.106H120.456H141.269V227.699C141.269 219.028 140.402 217.293 136.065 217.293C131.44 217.293 130.862 215.558 130.862 201.683C130.862 187.809 130.285 186.073 125.659 186.073C122.191 186.073 120.456 187.809 120.456 191.277C120.456 194.745 118.72 196.48 115.252 196.48C111.784 196.48 110.049 194.745 110.049 191.277C110.049 187.809 108.314 186.073 104.846 186.073C100.509 186.073 99.6426 187.809 99.6426 196.48ZM141.269 191.277C141.269 194.745 143.004 196.48 146.472 196.48C149.94 196.48 151.675 194.745 151.675 191.277C151.675 187.809 149.94 186.073 146.472 186.073C143.004 186.073 141.269 187.809 141.269 191.277ZM162.082 191.277C162.082 194.745 163.817 196.48 167.285 196.48C170.753 196.48 172.488 194.745 172.488 191.277C172.488 187.809 170.753 186.073 167.285 186.073C163.817 186.073 162.082 187.809 162.082 191.277ZM297.366 201.683V217.293H307.773H318.179V206.886C318.179 198.215 317.313 196.48 312.976 196.48C309.508 196.48 307.773 194.745 307.773 191.277C307.773 187.809 306.037 186.073 302.569 186.073C297.944 186.073 297.366 187.809 297.366 201.683ZM234.927 206.886C234.927 215.558 234.061 217.293 229.724 217.293C225.387 217.293 224.521 215.558 224.521 206.886C224.521 198.215 225.387 196.48 229.724 196.48C234.061 196.48 234.927 198.215 234.927 206.886ZM276.553 206.886C276.553 215.558 275.687 217.293 271.35 217.293C267.013 217.293 266.147 215.558 266.147 206.886C266.147 198.215 267.013 196.48 271.35 196.48C275.687 196.48 276.553 198.215 276.553 206.886ZM193.301 212.09C193.301 216.426 195.036 217.293 203.708 217.293H214.114V227.699C214.114 236.371 213.248 238.106 208.911 238.106C205.443 238.106 203.708 236.371 203.708 232.903C203.708 229.435 201.972 227.699 198.504 227.699C195.036 227.699 193.301 229.435 193.301 232.903C193.301 236.371 191.566 238.106 188.098 238.106C184.63 238.106 182.895 236.371 182.895 232.903C182.895 229.435 184.63 227.699 188.098 227.699C191.566 227.699 193.301 225.964 193.301 222.496C193.301 219.028 191.566 217.293 188.098 217.293C184.63 217.293 182.895 215.558 182.895 212.09C182.895 208.622 184.63 206.886 188.098 206.886C191.566 206.886 193.301 208.622 193.301 212.09ZM255.74 222.496C255.74 225.964 254.005 227.699 250.537 227.699C247.069 227.699 245.334 225.964 245.334 222.496C245.334 219.028 247.069 217.293 250.537 217.293C254.005 217.293 255.74 219.028 255.74 222.496ZM286.96 243.309C286.96 247.646 285.224 248.512 276.553 248.512C267.882 248.512 266.147 249.379 266.147 253.716C266.147 258.053 267.882 258.919 276.553 258.919C285.224 258.919 286.96 258.053 286.96 253.716C286.96 250.248 288.695 248.512 292.163 248.512C296.789 248.512 297.366 250.248 297.366 264.122C297.366 277.997 296.789 279.732 292.163 279.732C288.695 279.732 286.96 281.467 286.96 284.935C286.96 289.272 288.695 290.138 297.366 290.138C306.037 290.138 307.773 291.005 307.773 295.342C307.773 298.81 306.037 300.545 302.569 300.545C299.101 300.545 297.366 302.28 297.366 305.748C297.366 309.216 295.631 310.951 292.163 310.951C288.695 310.951 286.96 309.216 286.96 305.748C286.96 301.411 285.224 300.545 276.553 300.545H266.147V290.138C266.147 281.467 267.013 279.732 271.35 279.732C274.818 279.732 276.553 277.997 276.553 274.529C276.553 271.061 274.818 269.325 271.35 269.325C267.882 269.325 266.147 271.061 266.147 274.529C266.147 277.997 264.411 279.732 260.943 279.732C256.606 279.732 255.74 277.997 255.74 269.325C255.74 260.654 254.874 258.919 250.537 258.919C246.2 258.919 245.334 260.654 245.334 269.325C245.334 277.997 244.467 279.732 240.13 279.732C236.662 279.732 234.927 277.997 234.927 274.529C234.927 271.061 233.192 269.325 229.724 269.325C226.256 269.325 224.521 271.061 224.521 274.529C224.521 277.997 222.785 279.732 219.317 279.732C215.849 279.732 214.114 281.467 214.114 284.935C214.114 289.561 212.379 290.138 198.504 290.138C184.63 290.138 182.895 290.716 182.895 295.342C182.895 299.679 184.63 300.545 193.301 300.545C201.972 300.545 203.708 301.411 203.708 305.748C203.708 309.216 205.443 310.951 208.911 310.951C212.379 310.951 214.114 312.687 214.114 316.155C214.114 319.623 215.849 321.358 219.317 321.358C222.785 321.358 224.521 319.623 224.521 316.155C224.521 312.687 226.256 310.951 229.724 310.951C233.192 310.951 234.927 312.687 234.927 316.155C234.927 320.78 236.662 321.358 250.537 321.358C264.411 321.358 266.147 320.78 266.147 316.155C266.147 311.818 267.882 310.951 276.553 310.951C285.224 310.951 286.96 311.818 286.96 316.155C286.96 320.78 288.695 321.358 302.569 321.358C316.444 321.358 318.179 320.78 318.179 316.155C318.179 312.687 316.444 310.951 312.976 310.951C309.508 310.951 307.773 309.216 307.773 305.748C307.773 302.28 309.508 300.545 312.976 300.545C316.444 300.545 318.179 298.81 318.179 295.342C318.179 291.874 316.444 290.138 312.976 290.138C309.508 290.138 307.773 288.403 307.773 284.935C307.773 281.467 309.508 279.732 312.976 279.732C316.444 279.732 318.179 277.997 318.179 274.529C318.179 271.061 316.444 269.325 312.976 269.325C309.508 269.325 307.773 267.59 307.773 264.122C307.773 260.654 309.508 258.919 312.976 258.919C317.313 258.919 318.179 257.184 318.179 248.512V238.106H302.569C288.695 238.106 286.96 238.683 286.96 243.309ZM99.6426 284.935V321.358H136.065H172.488V284.935V248.512H136.065H99.6426V284.935ZM224.521 253.716C224.521 257.184 226.256 258.919 229.724 258.919C233.192 258.919 234.927 257.184 234.927 253.716C234.927 250.248 233.192 248.512 229.724 248.512C226.256 248.512 224.521 250.248 224.521 253.716ZM162.082 284.935V310.951H136.065H110.049V284.935V258.919H136.065H162.082V284.935ZM120.456 284.935V300.545H136.065H151.675V284.935V269.325H136.065H120.456V284.935ZM234.927 290.138C234.927 298.81 234.061 300.545 229.724 300.545C225.387 300.545 224.521 298.81 224.521 290.138C224.521 281.467 225.387 279.732 229.724 279.732C234.061 279.732 234.927 281.467 234.927 290.138ZM255.74 284.935C255.74 288.403 254.005 290.138 250.537 290.138C247.069 290.138 245.334 288.403 245.334 284.935C245.334 281.467 247.069 279.732 250.537 279.732C254.005 279.732 255.74 281.467 255.74 284.935ZM255.74 305.748C255.74 309.216 254.005 310.951 250.537 310.951C247.069 310.951 245.334 309.216 245.334 305.748C245.334 302.28 247.069 300.545 250.537 300.545C254.005 300.545 255.74 302.28 255.74 305.748ZM182.895 316.155C182.895 319.623 184.63 321.358 188.098 321.358C191.566 321.358 193.301 319.623 193.301 316.155C193.301 312.687 191.566 310.951 188.098 310.951C184.63 310.951 182.895 312.687 182.895 316.155Z" fill="white"/>
</g>
</g>
<defs>
<clipPath id="clip0_2871_1511">
<rect width="283.669" height="255" fill="white" transform="translate(228.318 85)"/>
</clipPath>
<clipPath id="clip1_2871_1511">
<rect width="224" height="224" fill="white" transform="translate(96 101)"/>
</clipPath>
</defs>
</svg>
