<svg width="320" height="205" viewBox="0 0 320 205" fill="none" xmlns="http://www.w3.org/2000/svg">
<g clip-path="url(#clip0_2871_1508)">
<mask id="mask0_2871_1508" style="mask-type:alpha" maskUnits="userSpaceOnUse" x="76" y="17" width="170" height="170">
<path d="M245.798 101.899C245.798 55.0106 207.787 17 160.899 17C114.011 17 76 55.0106 76 101.899C76 148.787 114.011 186.798 160.899 186.798C207.787 186.798 245.798 148.787 245.798 101.899Z" fill="white"/>
</mask>
<g mask="url(#mask0_2871_1508)">
<path fill-rule="evenodd" clip-rule="evenodd" d="M101 62V82H121H141V62V42H121H101V62ZM152.429 44.8571C152.429 46.7614 151.476 47.7143 149.571 47.7143C147.667 47.7143 146.714 48.6671 146.714 50.5714C146.714 52.4757 147.667 53.4286 149.571 53.4286C151.476 53.4286 152.429 52.4757 152.429 50.5714C152.429 48.6671 153.381 47.7143 155.286 47.7143C157.19 47.7143 158.143 46.7614 158.143 44.8571C158.143 42.9529 157.19 42 155.286 42C153.381 42 152.429 42.9529 152.429 44.8571ZM163.857 47.7143C163.857 52.4757 163.381 53.4286 161 53.4286C159.096 53.4286 158.143 54.3814 158.143 56.2857C158.143 58.19 157.19 59.1429 155.286 59.1429C153.381 59.1429 152.429 60.0957 152.429 62C152.429 63.9043 151.476 64.8571 149.571 64.8571C147.667 64.8571 146.714 65.81 146.714 67.7143C146.714 69.6186 147.667 70.5714 149.571 70.5714C151.476 70.5714 152.429 71.5243 152.429 73.4286C152.429 75.3329 151.476 76.2857 149.571 76.2857C147.667 76.2857 146.714 77.2386 146.714 79.1429C146.714 81.0471 147.667 82 149.571 82C151.476 82 152.429 81.0471 152.429 79.1429C152.429 77.2386 153.381 76.2857 155.286 76.2857C157.667 76.2857 158.143 77.2386 158.143 82C158.143 86.7614 157.667 87.7143 155.286 87.7143C153.381 87.7143 152.429 88.6671 152.429 90.5714C152.429 92.4757 151.476 93.4286 149.571 93.4286C147.667 93.4286 146.714 94.3814 146.714 96.2857C146.714 98.8257 145.761 99.1429 138.143 99.1429C130.524 99.1429 129.571 99.46 129.571 102C129.571 104.54 130.524 104.857 138.143 104.857C145.761 104.857 146.714 105.174 146.714 107.714C146.714 110.096 145.761 110.571 141 110.571C136.239 110.571 135.286 111.047 135.286 113.429C135.286 115.81 136.239 116.286 141 116.286C145.761 116.286 146.714 116.761 146.714 119.143C146.714 121.524 147.667 122 152.429 122C157.19 122 158.143 122.476 158.143 124.857C158.143 126.761 157.19 127.714 155.286 127.714C153.381 127.714 152.429 128.667 152.429 130.571C152.429 132.476 151.476 133.429 149.571 133.429C147.667 133.429 146.714 134.381 146.714 136.286C146.714 138.667 147.667 139.143 152.429 139.143H158.143V133.429C158.143 128.667 158.619 127.714 161 127.714C163.381 127.714 163.857 126.761 163.857 122C163.857 117.239 164.333 116.286 166.714 116.286C168.619 116.286 169.571 115.333 169.571 113.429C169.571 111.524 170.524 110.571 172.429 110.571C174.333 110.571 175.286 111.524 175.286 113.429C175.286 115.333 176.239 116.286 178.143 116.286C180.047 116.286 181 117.239 181 119.143C181 121.047 181.953 122 183.857 122C185.761 122 186.714 121.047 186.714 119.143C186.714 117.239 187.667 116.286 189.571 116.286C191.476 116.286 192.429 115.333 192.429 113.429C192.429 111.524 193.381 110.571 195.286 110.571C197.19 110.571 198.143 109.619 198.143 107.714C198.143 105.81 199.096 104.857 201 104.857C203.381 104.857 203.857 103.904 203.857 99.1429C203.857 94.3814 203.381 93.4286 201 93.4286C199.096 93.4286 198.143 92.4757 198.143 90.5714C198.143 88.6671 197.19 87.7143 195.286 87.7143C193.381 87.7143 192.429 88.6671 192.429 90.5714C192.429 92.4757 191.476 93.4286 189.571 93.4286C187.667 93.4286 186.714 94.3814 186.714 96.2857C186.714 98.19 185.761 99.1429 183.857 99.1429C181.953 99.1429 181 98.19 181 96.2857C181 94.3814 180.047 93.4286 178.143 93.4286C176.239 93.4286 175.286 92.4757 175.286 90.5714C175.286 88.6671 174.333 87.7143 172.429 87.7143C170.524 87.7143 169.571 88.6671 169.571 90.5714C169.571 92.4757 168.619 93.4286 166.714 93.4286C164.81 93.4286 163.857 94.3814 163.857 96.2857C163.857 98.6671 162.904 99.1429 158.143 99.1429C153.381 99.1429 152.429 98.6671 152.429 96.2857C152.429 94.3814 153.381 93.4286 155.286 93.4286C157.19 93.4286 158.143 92.4757 158.143 90.5714C158.143 88.6671 159.096 87.7143 161 87.7143C163.381 87.7143 163.857 86.7614 163.857 82C163.857 77.2386 164.333 76.2857 166.714 76.2857C168.619 76.2857 169.571 77.2386 169.571 79.1429C169.571 81.0471 170.524 82 172.429 82C174.333 82 175.286 81.0471 175.286 79.1429C175.286 77.2386 174.333 76.2857 172.429 76.2857C170.524 76.2857 169.571 75.3329 169.571 73.4286C169.571 71.5243 170.524 70.5714 172.429 70.5714C174.333 70.5714 175.286 69.6186 175.286 67.7143C175.286 65.81 174.333 64.8571 172.429 64.8571C170.524 64.8571 169.571 63.9043 169.571 62C169.571 60.0957 168.619 59.1429 166.714 59.1429C164.81 59.1429 163.857 58.19 163.857 56.2857C163.857 54.3814 164.81 53.4286 166.714 53.4286C169.096 53.4286 169.571 52.4757 169.571 47.7143C169.571 42.9529 169.096 42 166.714 42C164.333 42 163.857 42.9529 163.857 47.7143ZM181 62V82H201H221V62V42H201H181V62ZM135.286 62V76.2857H121H106.714V62V47.7143H121H135.286V62ZM215.286 62V76.2857H201H186.714V62V47.7143H201H215.286V62ZM112.429 62V70.5714H121H129.571V62V53.4286H121H112.429V62ZM192.429 62V70.5714H201H209.571V62V53.4286H201H192.429V62ZM163.857 64.8571V70.5714H158.143C153.381 70.5714 152.429 70.0957 152.429 67.7143C152.429 65.81 153.381 64.8571 155.286 64.8571C157.19 64.8571 158.143 63.9043 158.143 62C158.143 60.0957 159.096 59.1429 161 59.1429C163.381 59.1429 163.857 60.0957 163.857 64.8571ZM101 93.4286V99.1429H106.714C111.476 99.1429 112.429 99.6186 112.429 102C112.429 103.904 113.381 104.857 115.286 104.857C117.19 104.857 118.143 105.81 118.143 107.714C118.143 110.096 117.19 110.571 112.429 110.571C107.667 110.571 106.714 110.096 106.714 107.714C106.714 105.81 105.761 104.857 103.857 104.857C101.476 104.857 101 105.81 101 110.571V116.286H112.429H123.857V110.571C123.857 105.81 123.381 104.857 121 104.857C118.46 104.857 118.143 103.904 118.143 96.2857C118.143 88.6671 117.826 87.7143 115.286 87.7143C113.381 87.7143 112.429 88.6671 112.429 90.5714C112.429 92.4757 111.476 93.4286 109.571 93.4286C107.667 93.4286 106.714 92.4757 106.714 90.5714C106.714 88.6671 105.761 87.7143 103.857 87.7143C101.476 87.7143 101 88.6671 101 93.4286ZM123.857 90.5714C123.857 92.4757 124.81 93.4286 126.714 93.4286C128.619 93.4286 129.571 92.4757 129.571 90.5714C129.571 88.6671 128.619 87.7143 126.714 87.7143C124.81 87.7143 123.857 88.6671 123.857 90.5714ZM135.286 90.5714C135.286 92.4757 136.239 93.4286 138.143 93.4286C140.047 93.4286 141 92.4757 141 90.5714C141 88.6671 140.047 87.7143 138.143 87.7143C136.239 87.7143 135.286 88.6671 135.286 90.5714ZM209.571 96.2857V104.857H215.286H221V99.1429C221 94.3814 220.524 93.4286 218.143 93.4286C216.239 93.4286 215.286 92.4757 215.286 90.5714C215.286 88.6671 214.333 87.7143 212.429 87.7143C209.889 87.7143 209.571 88.6671 209.571 96.2857ZM175.286 99.1429C175.286 103.904 174.81 104.857 172.429 104.857C170.047 104.857 169.571 103.904 169.571 99.1429C169.571 94.3814 170.047 93.4286 172.429 93.4286C174.81 93.4286 175.286 94.3814 175.286 99.1429ZM198.143 99.1429C198.143 103.904 197.667 104.857 195.286 104.857C192.904 104.857 192.429 103.904 192.429 99.1429C192.429 94.3814 192.904 93.4286 195.286 93.4286C197.667 93.4286 198.143 94.3814 198.143 99.1429ZM152.429 102C152.429 104.381 153.381 104.857 158.143 104.857H163.857V110.571C163.857 115.333 163.381 116.286 161 116.286C159.096 116.286 158.143 115.333 158.143 113.429C158.143 111.524 157.19 110.571 155.286 110.571C153.381 110.571 152.429 111.524 152.429 113.429C152.429 115.333 151.476 116.286 149.571 116.286C147.667 116.286 146.714 115.333 146.714 113.429C146.714 111.524 147.667 110.571 149.571 110.571C151.476 110.571 152.429 109.619 152.429 107.714C152.429 105.81 151.476 104.857 149.571 104.857C147.667 104.857 146.714 103.904 146.714 102C146.714 100.096 147.667 99.1429 149.571 99.1429C151.476 99.1429 152.429 100.096 152.429 102ZM186.714 107.714C186.714 109.619 185.761 110.571 183.857 110.571C181.953 110.571 181 109.619 181 107.714C181 105.81 181.953 104.857 183.857 104.857C185.761 104.857 186.714 105.81 186.714 107.714ZM203.857 119.143C203.857 121.524 202.904 122 198.143 122C193.381 122 192.429 122.476 192.429 124.857C192.429 127.239 193.381 127.714 198.143 127.714C202.904 127.714 203.857 127.239 203.857 124.857C203.857 122.953 204.81 122 206.714 122C209.254 122 209.571 122.953 209.571 130.571C209.571 138.19 209.254 139.143 206.714 139.143C204.81 139.143 203.857 140.096 203.857 142C203.857 144.381 204.81 144.857 209.571 144.857C214.333 144.857 215.286 145.333 215.286 147.714C215.286 149.619 214.333 150.571 212.429 150.571C210.524 150.571 209.571 151.524 209.571 153.429C209.571 155.333 208.619 156.286 206.714 156.286C204.81 156.286 203.857 155.333 203.857 153.429C203.857 151.047 202.904 150.571 198.143 150.571H192.429V144.857C192.429 140.096 192.904 139.143 195.286 139.143C197.19 139.143 198.143 138.19 198.143 136.286C198.143 134.381 197.19 133.429 195.286 133.429C193.381 133.429 192.429 134.381 192.429 136.286C192.429 138.19 191.476 139.143 189.571 139.143C187.19 139.143 186.714 138.19 186.714 133.429C186.714 128.667 186.239 127.714 183.857 127.714C181.476 127.714 181 128.667 181 133.429C181 138.19 180.524 139.143 178.143 139.143C176.239 139.143 175.286 138.19 175.286 136.286C175.286 134.381 174.333 133.429 172.429 133.429C170.524 133.429 169.571 134.381 169.571 136.286C169.571 138.19 168.619 139.143 166.714 139.143C164.81 139.143 163.857 140.096 163.857 142C163.857 144.54 162.904 144.857 155.286 144.857C147.667 144.857 146.714 145.174 146.714 147.714C146.714 150.096 147.667 150.571 152.429 150.571C157.19 150.571 158.143 151.047 158.143 153.429C158.143 155.333 159.096 156.286 161 156.286C162.904 156.286 163.857 157.239 163.857 159.143C163.857 161.047 164.81 162 166.714 162C168.619 162 169.571 161.047 169.571 159.143C169.571 157.239 170.524 156.286 172.429 156.286C174.333 156.286 175.286 157.239 175.286 159.143C175.286 161.683 176.239 162 183.857 162C191.476 162 192.429 161.683 192.429 159.143C192.429 156.761 193.381 156.286 198.143 156.286C202.904 156.286 203.857 156.761 203.857 159.143C203.857 161.683 204.81 162 212.429 162C220.047 162 221 161.683 221 159.143C221 157.239 220.047 156.286 218.143 156.286C216.239 156.286 215.286 155.333 215.286 153.429C215.286 151.524 216.239 150.571 218.143 150.571C220.047 150.571 221 149.619 221 147.714C221 145.81 220.047 144.857 218.143 144.857C216.239 144.857 215.286 143.904 215.286 142C215.286 140.096 216.239 139.143 218.143 139.143C220.047 139.143 221 138.19 221 136.286C221 134.381 220.047 133.429 218.143 133.429C216.239 133.429 215.286 132.476 215.286 130.571C215.286 128.667 216.239 127.714 218.143 127.714C220.524 127.714 221 126.761 221 122V116.286H212.429C204.81 116.286 203.857 116.603 203.857 119.143ZM101 142V162H121H141V142V122H121H101V142ZM169.571 124.857C169.571 126.761 170.524 127.714 172.429 127.714C174.333 127.714 175.286 126.761 175.286 124.857C175.286 122.953 174.333 122 172.429 122C170.524 122 169.571 122.953 169.571 124.857ZM135.286 142V156.286H121H106.714V142V127.714H121H135.286V142ZM112.429 142V150.571H121H129.571V142V133.429H121H112.429V142ZM175.286 144.857C175.286 149.619 174.81 150.571 172.429 150.571C170.047 150.571 169.571 149.619 169.571 144.857C169.571 140.096 170.047 139.143 172.429 139.143C174.81 139.143 175.286 140.096 175.286 144.857ZM186.714 142C186.714 143.904 185.761 144.857 183.857 144.857C181.953 144.857 181 143.904 181 142C181 140.096 181.953 139.143 183.857 139.143C185.761 139.143 186.714 140.096 186.714 142ZM186.714 153.429C186.714 155.333 185.761 156.286 183.857 156.286C181.953 156.286 181 155.333 181 153.429C181 151.524 181.953 150.571 183.857 150.571C185.761 150.571 186.714 151.524 186.714 153.429ZM146.714 159.143C146.714 161.047 147.667 162 149.571 162C151.476 162 152.429 161.047 152.429 159.143C152.429 157.239 151.476 156.286 149.571 156.286C147.667 156.286 146.714 157.239 146.714 159.143Z" fill="#FF8566"/>
</g>
</g>
<rect x="1" y="1" width="318" height="203" rx="7" stroke="white" stroke-width="2"/>
<defs>
<clipPath id="clip0_2871_1508">
<rect width="123" height="123" fill="white" transform="translate(99 41)"/>
</clipPath>
</defs>
</svg>
